<svg xmlns="http://www.w3.org/2000/svg" viewBox="0 0 100 100">
  <!-- Background with rounded corners -->
  <rect width="100" height="100" rx="15" ry="15" fill="#152238"/>

  <!-- Subtle map grid lines -->
  <g stroke="#2a3a52" stroke-width="2" fill="none">
    <path d="M10 25 L25 40 L10 55"/>
    <path d="M15 60 L30 75 L15 90"/>
    <path d="M70 10 L85 25 L70 40"/>
    <path d="M75 50 L90 65 L75 80"/>
    <path d="M60 75 L75 90"/>
    <path d="M85 85 L95 95"/>
  </g>

  <!-- Location pin (white) -->
  <path d="M50 85 C50 85 25 55 25 40 C25 26 36 15 50 15 C64 15 75 26 75 40 C75 55 50 85 50 85 Z" fill="white"/>

  <!-- Inner circle (dark) -->
  <circle cx="50" cy="40" r="20" fill="#152238"/>

  <!-- Left candle -->
  <rect x="38" y="38" width="8" height="22" rx="1" fill="#F5A623"/>
  <!-- Left flame -->
  <path d="M42 38 C42 38 45 32 42 26 C39 32 42 38 42 38 Z" fill="#F5A623"/>

  <!-- Right candle -->
  <rect x="54" y="38" width="8" height="22" rx="1" fill="#F5A623"/>
  <!-- Right flame -->
  <path d="M58 38 C58 38 61 32 58 26 C55 32 58 38 58 38 Z" fill="#F5A623"/>
</svg>
